<svg width="42" height="42" viewBox="0 0 42 42" fill="none" xmlns="http://www.w3.org/2000/svg">
<rect width="42" height="42" rx="8" fill="#283036"/>
<path d="M22.8333 21.9166H21.9167V20.9999C21.9167 20.7568 21.8201 20.5236 21.6482 20.3517C21.4763 20.1798 21.2431 20.0833 21 20.0833C20.7569 20.0833 20.5237 20.1798 20.3518 20.3517C20.1799 20.5236 20.0833 20.7568 20.0833 20.9999V21.9166H19.1667C18.9236 21.9166 18.6904 22.0132 18.5185 22.1851C18.3466 22.357 18.25 22.5901 18.25 22.8333C18.25 23.0764 18.3466 23.3095 18.5185 23.4814C18.6904 23.6533 18.9236 23.7499 19.1667 23.7499H20.0833V24.6666C20.0833 24.9097 20.1799 25.1429 20.3518 25.3148C20.5237 25.4867 20.7569 25.5833 21 25.5833C21.2431 25.5833 21.4763 25.4867 21.6482 25.3148C21.8201 25.1429 21.9167 24.9097 21.9167 24.6666V23.7499H22.8333C23.0764 23.7499 23.3096 23.6533 23.4815 23.4814C23.6534 23.3095 23.75 23.0764 23.75 22.8333C23.75 22.5901 23.6534 22.357 23.4815 22.1851C23.3096 22.0132 23.0764 21.9166 22.8333 21.9166Z" fill="white"/>
<path d="M27.875 16.4625H21.4584L19.0475 13.5475C18.9622 13.4423 18.8547 13.3574 18.7327 13.2987C18.6106 13.2401 18.4771 13.2092 18.3417 13.2083H14.125C13.5261 13.2009 12.9486 13.4312 12.5191 13.8487C12.0896 14.2662 11.843 14.8369 11.8334 15.4358V26.5641C11.843 27.163 12.0896 27.7337 12.5191 28.1512C12.9486 28.5687 13.5261 28.799 14.125 28.7916H27.875C28.474 28.799 29.0514 28.5687 29.481 28.1512C29.9105 27.7337 30.1571 27.163 30.1667 26.5641V18.69C30.1571 18.0911 29.9105 17.5204 29.481 17.1029C29.0514 16.6854 28.474 16.4551 27.875 16.4625V16.4625ZM28.3334 26.5458C28.3299 26.602 28.3152 26.657 28.2902 26.7075C28.2651 26.758 28.2302 26.8029 28.1874 26.8397C28.1447 26.8764 28.0951 26.9042 28.0414 26.9214C27.9877 26.9387 27.9312 26.945 27.875 26.94H14.125C14.0689 26.945 14.0123 26.9387 13.9587 26.9214C13.905 26.9042 13.8554 26.8764 13.8126 26.8397C13.7699 26.8029 13.735 26.758 13.7099 26.7075C13.6849 26.657 13.6702 26.602 13.6667 26.5458V15.4358C13.6702 15.3796 13.6849 15.3246 13.7099 15.2741C13.735 15.2236 13.7699 15.1787 13.8126 15.1419C13.8554 15.1052 13.905 15.0774 13.9587 15.0602C14.0123 15.0429 14.0689 15.0366 14.125 15.0416H17.9109L20.2942 17.9566C20.3795 18.0618 20.487 18.1467 20.6091 18.2054C20.7311 18.264 20.8646 18.2949 21 18.2958H27.875C27.9312 18.2908 27.9877 18.2971 28.0414 18.3143C28.0951 18.3315 28.1447 18.3594 28.1874 18.3961C28.2302 18.4328 28.2651 18.4778 28.2902 18.5283C28.3152 18.5787 28.3299 18.6337 28.3334 18.69V26.5458Z" fill="white"/>
</svg>
