<svg width="22" height="22" viewBox="0 0 22 22" fill="none" xmlns="http://www.w3.org/2000/svg">
<path d="M12.8333 11.9166H11.9167V10.9999C11.9167 10.7568 11.8201 10.5236 11.6482 10.3517C11.4763 10.1798 11.2431 10.0833 11 10.0833C10.7569 10.0833 10.5237 10.1798 10.3518 10.3517C10.1799 10.5236 10.0833 10.7568 10.0833 10.9999V11.9166H9.16667C8.92355 11.9166 8.69039 12.0132 8.51849 12.1851C8.34658 12.357 8.25 12.5901 8.25 12.8333C8.25 13.0764 8.34658 13.3095 8.51849 13.4814C8.69039 13.6533 8.92355 13.7499 9.16667 13.7499H10.0833V14.6666C10.0833 14.9097 10.1799 15.1429 10.3518 15.3148C10.5237 15.4867 10.7569 15.5833 11 15.5833C11.2431 15.5833 11.4763 15.4867 11.6482 15.3148C11.8201 15.1429 11.9167 14.9097 11.9167 14.6666V13.7499H12.8333C13.0764 13.7499 13.3096 13.6533 13.4815 13.4814C13.6534 13.3095 13.75 13.0764 13.75 12.8333C13.75 12.5901 13.6534 12.357 13.4815 12.1851C13.3096 12.0132 13.0764 11.9166 12.8333 11.9166Z" fill="white"/>
<path d="M17.875 6.46247H11.4584L9.04754 3.54747C8.96224 3.44231 8.85471 3.35736 8.73266 3.29872C8.61062 3.24008 8.47711 3.2092 8.34171 3.2083H4.12504C3.5261 3.20095 2.94865 3.43123 2.51913 3.84872C2.08961 4.26621 1.84303 4.83689 1.83337 5.4358V16.5641C1.84303 17.163 2.08961 17.7337 2.51913 18.1512C2.94865 18.5687 3.5261 18.799 4.12504 18.7916H17.875C18.474 18.799 19.0514 18.5687 19.481 18.1512C19.9105 17.7337 20.1571 17.163 20.1667 16.5641V8.68997C20.1571 8.09106 19.9105 7.52038 19.481 7.10289C19.0514 6.6854 18.474 6.45511 17.875 6.46247ZM18.3334 16.5458C18.3299 16.602 18.3152 16.657 18.2902 16.7075C18.2651 16.758 18.2302 16.8029 18.1874 16.8397C18.1447 16.8764 18.0951 16.9042 18.0414 16.9214C17.9877 16.9387 17.9312 16.945 17.875 16.94H4.12504C4.06891 16.945 4.01234 16.9387 3.95868 16.9214C3.90503 16.9042 3.85537 16.8764 3.81264 16.8397C3.76991 16.8029 3.73498 16.758 3.70992 16.7075C3.68485 16.657 3.67016 16.602 3.66671 16.5458V5.4358C3.67016 5.37955 3.68485 5.32456 3.70992 5.27409C3.73498 5.22362 3.76991 5.17868 3.81264 5.14193C3.85537 5.10519 3.90503 5.07738 3.95868 5.06015C4.01234 5.04292 4.06891 5.03663 4.12504 5.04163H7.91087L10.2942 7.95663C10.3795 8.06179 10.487 8.14674 10.6091 8.20538C10.7311 8.26403 10.8646 8.29491 11 8.2958H17.875C17.9312 8.29079 17.9877 8.29709 18.0414 8.31432C18.0951 8.33155 18.1447 8.35935 18.1874 8.3961C18.2302 8.43285 18.2651 8.47778 18.2902 8.52826C18.3152 8.57873 18.3299 8.63372 18.3334 8.68997V16.5458Z" fill="white"/>
</svg>
